<?xml version="1.0" encoding="UTF-8"?> <svg xmlns="http://www.w3.org/2000/svg" id="Groupe_13003" data-name="Groupe 13003" width="180.552" height="73.684" viewBox="0 0 180.552 73.684"><path id="Tracé_19880" data-name="Tracé 19880" d="M126.732,17.945a8.778,8.778,0,0,0-.111,1.653c.009.373,0,.751-.02,1.212,5.42-.777,6.042-5.849,6.1-7.561a7.8,7.8,0,0,0-2.746.556,5.069,5.069,0,0,1-3.218,4.139" transform="translate(-78.282 -8.193)"></path><path id="Tracé_19881" data-name="Tracé 19881" d="M100.386,29.2a8.737,8.737,0,0,0,.11-1.654c-.009-.372,0-.76.021-1.212-5.422.777-6.042,5.848-6.1,7.56a7.776,7.776,0,0,0,2.745-.558,5.065,5.065,0,0,1,3.219-4.137" transform="translate(-58.384 -16.283)"></path><path id="Tracé_19882" data-name="Tracé 19882" d="M55.633,14.274l-.077.016a10.612,10.612,0,0,0-8.572,8.026l-.015.067-.069.008c-.044.005-.09.009-.135.013s-.1.008-.144.013c-.8.1-1.621.236-2.522.427a29.685,29.685,0,0,0-6.818,2.349l-.113.056-.024-.125c-.119-.623-.269-1.277-.46-2l-.054-.2.118-.006c8.759-.5,9.745-7.861,9.854-9.332.036-.489.048-.957.037-1.431a11.379,11.379,0,0,1,.05-1.4,6.766,6.766,0,0,1,4.994-6.185,9.908,9.908,0,0,1,1.792-.375c.068-.008.131-.014.193-.019l.049,0h1.917Zm0,8.459-.114-.021c-.584-.11-1.226-.206-1.965-.295-.913-.11-1.846-.176-2.772-.2l-.2-.005c-.144,0-.287-.009-.431-.01h-.136l.044-.128A7.371,7.371,0,0,1,54.9,17.469c.163-.055.318-.094.468-.132l.266-.069Zm-21.255-5.58-.1-.19c-.064-.126-.128-.252-.2-.376-.283-.52-.6-1.051-.957-1.624A29.82,29.82,0,0,0,31.321,12.4c-.014-.017-.026-.034-.039-.051l-.034-.045c-.111-.14-.228-.276-.344-.412l-.19-.224V11.5l.1,0c3.4-.055,8.086-1.717,10.1-6.219a10.626,10.626,0,0,0,.407-1.045l.022-.066h5.37l-.165.165a9.645,9.645,0,0,0-2.695,6.309,14.288,14.288,0,0,0-.038,1.431,11.329,11.329,0,0,1-.049,1.4,6.766,6.766,0,0,1-5,6.185,10.094,10.094,0,0,1-1.793.375,9.6,9.6,0,0,1-1.06.067l-.211,0a30.2,30.2,0,0,0-1.327-2.95m.056,9.651a29.574,29.574,0,0,0-5.1,4.13l-.069.07-.069-.07a29.556,29.556,0,0,0-5.1-4.13l-.053-.034.009-.062a26.245,26.245,0,0,1,2.833-8.526c.182-.341.38-.706.6-1.069.4-.676.846-1.344,1.356-2.045.046-.064.092-.129.137-.193.07-.1.14-.2.214-.3l.077-.1.077.1a26.383,26.383,0,0,1,4.362,8.63,26.546,26.546,0,0,1,.774,3.5l.009.062ZM23.76,17.938V4.168h4.057v7.5l-.19.224c-.116.136-.232.272-.344.412a29.631,29.631,0,0,0-2.022,2.869c-.435.7-.866,1.485-1.318,2.394Zm6.954-13.77h7.521l-.068.14A7.485,7.485,0,0,1,33.674,8.07a10.527,10.527,0,0,1-1.846.429,9.965,9.965,0,0,1-1.014.093l-.1,0ZM20.863,9.443,16.806,7.484V4.168h4.057Zm0,15.573-.137-.065a29.085,29.085,0,0,0-3.851-1.486l-.069-.021V10.712l4.057,1.959ZM13.908,6.085,9.939,4.168h3.97Zm0,16.649-.114-.021a28.856,28.856,0,0,0-3.851-.464l-.091,0V7.355l4.056,1.959ZM6.954,4.168,2.9,8.24V4.168Zm0,8.22L2.9,16.461V12.354L6.954,8.281Zm0,9.856-.091,0a29.48,29.48,0,0,0-3.851.463l-.114.021V20.574L6.954,16.5ZM0,1.259V26.5a26.205,26.205,0,0,1,20.908,1.786A26.462,26.462,0,0,1,23.923,30.2a26.676,26.676,0,0,1,5.342,5.219A26.676,26.676,0,0,1,34.609,30.2a26.415,26.415,0,0,1,3.014-1.917,26.041,26.041,0,0,1,8.914-2.92,26.62,26.62,0,0,1,3.109-.237c.068,0,.136,0,.2-.007.093,0,.185-.008.279-.008a25.979,25.979,0,0,1,8.4,1.386V1.259Z" transform="translate(0 -0.778)"></path><path id="Tracé_19883" data-name="Tracé 19883" d="M121.092,77.472V74.555c-.833.048-1.717.147-2.768.31l-.337.05c-.189.027-.379.055-.566.088v2.962a26.684,26.684,0,0,1,2.719-.4c.11-.011.22-.023.33-.035.2-.022.411-.045.621-.06" transform="translate(-72.606 -46.1)"></path><path id="Tracé_19884" data-name="Tracé 19884" d="M135.642,74.562v2.913a25.759,25.759,0,0,1,6.761,1.331V75.75a28.933,28.933,0,0,0-3.012-.731,29.545,29.545,0,0,0-3.749-.457" transform="translate(-83.872 -46.104)"></path><path id="Tracé_19885" data-name="Tracé 19885" d="M8.4,77.337a26.259,26.259,0,0,1,12.822,3.352,26.542,26.542,0,0,1,3.13,2.06q.322.246.635.5c.608.5,1.207,1.031,1.78,1.59q.255.251.506.508a26.6,26.6,0,0,1,1.989,2.3,26.66,26.66,0,0,1,1.989-2.3q.25-.258.506-.508c.573-.56,1.172-1.095,1.78-1.591q.314-.255.635-.5c.083-.064.169-.123.254-.182.049-.034.1-.068.147-.1V78.937l-.026.016c-.7.442-1.314.865-1.885,1.292a29.31,29.31,0,0,0-2.375,1.986c-.347.321-.66.624-.958.927l-.069.07-.069-.07c-.3-.3-.611-.606-.958-.927a29.375,29.375,0,0,0-2.375-1.986c-.57-.427-1.187-.85-1.885-1.293a29.453,29.453,0,0,0-3.222-1.771A28.864,28.864,0,0,0,8.4,74.428a29.257,29.257,0,0,0-5.391.508A28.975,28.975,0,0,0,0,75.667v3.056a25.991,25.991,0,0,1,8.4-1.386" transform="translate(0 -46.021)"></path><path id="Tracé_19886" data-name="Tracé 19886" d="M55.633,101.155a26.539,26.539,0,0,1-.576,5.45l-.016.077h-8.37l.165-.166,8.8-8.832ZM54.2,109.72A26.488,26.488,0,0,1,52.58,113.5h0l-.034.059-.058.1H39.717l4.057-4.072H54.245Zm-3.632,7.007a26.575,26.575,0,0,1-3.487,3.893l-.028.026H32.763l4.057-4.073H50.682Zm-7.581,7.007a26.251,26.251,0,0,1-5.338,2.512l-.146.05c-.421.14-.851.27-1.278.388-.283.077-.567.149-.852.218l-.195.047c-.191.046-.382.092-.577.133-.073.015-.147.027-.221.041l-.161.029c-.393.077-.724.135-1.039.183l-.063.01h0c-.289.042-.595.081-.936.118-.18.02-.361.037-.542.053-.431.039-.788.064-1.122.081-.3.013-.6.018-.9.023l-.157,0c-.067,0-.134,0-.2,0-.393,0-.8-.011-1.254-.032-.334-.016-.69-.042-1.121-.081-.181-.016-.362-.033-.543-.053l-.059-.009c-.024,0-.048-.008-.073-.01l-.2-.021,3.851-3.867H43.281ZM23.97,125.36l-.024-.2a26.2,26.2,0,0,1-.186-3.061c0-.068,0-.135,0-.2,0-.052,0-.1,0-.157,0-.1,0-.2.006-.3l0-.121A26.949,26.949,0,0,1,24,118.6l.021-.172c.011-.085.021-.171.033-.256a26.57,26.57,0,0,1,.57-2.783c.014-.054.029-.107.044-.16s.026-.089.038-.134a26.649,26.649,0,0,1,.952-2.832c.281-.7.594-1.395.93-2.061l.031-.061c.284-.563.619-1.157,1.021-1.819l.179-.295V121.5l-.028.028ZM23.2,110.6l-.043.1-.094-.055c-.422-.246-.854-.484-1.285-.706l-.144-.075c-.127-.066-.254-.132-.382-.2-.108-.053-.219-.105-.328-.157l-.166-.079A28.871,28.871,0,0,0,8.4,106.682a29.26,29.26,0,0,0-4.74.391l-.09.015L3.553,107a26.508,26.508,0,0,1-.565-3.741l-.006-.085.083-.017a26.275,26.275,0,0,1,17.843,2.626c.432.236.817.458,1.179.68.606.371,1.206.776,1.836,1.237.144.107.289.213.432.323l.065.05-.1.2c-.106.2-.206.4-.306.6l-.047.093c-.3.6-.551,1.138-.764,1.64m-1.069,2.951c-.149.489-.289,1.008-.43,1.587-.116.478-.221.964-.311,1.443l-.023.124-.114-.055c-.109-.053-.219-.105-.329-.157l-.166-.079A29.216,29.216,0,0,0,8.4,113.664c-.769,0-1.546-.037-2.376-.112l-.052,0-.024-.046a26.281,26.281,0,0,1-1.53-3.489l-.039-.111.116-.018a26.56,26.56,0,0,1,3.906-.292,26.09,26.09,0,0,1,9.908,1.946,26.526,26.526,0,0,1,2.6,1.226c.064.035.128.071.192.108l.125.071c.217.122.432.247.645.373.034.021.069.041.1.061s.077.044.115.068l.063.039Zm-1.1,12.742a26.3,26.3,0,0,1-13.059-9.56l-.111-.152.187,0,.157,0c.067,0,.134,0,.2,0a26.271,26.271,0,0,1,12.5,3.172l.055.03,0,.063c-.065.84-.1,1.58-.1,2.262a29.549,29.549,0,0,0,.29,4.091l.021.155ZM2.9,100.231V96.212l.077-.016A26.241,26.241,0,0,1,22.087,99.48a26.478,26.478,0,0,1,2.2,1.509l.065.051c.107.082.213.166.318.249l.1.083a26.586,26.586,0,0,1,1.995,1.761c.171.168.34.336.506.508l.06.062-.053.066c-.271.339-.506.645-.72.935q-.286.391-.561.793l-.058.083-.081-.061c-.032-.024-.066-.048-.1-.071l-.076-.054c-.5-.367-1.019-.724-1.593-1.092-.324-.209-.663-.416-1.036-.635-.641-.373-1.233-.693-1.809-.977A28.831,28.831,0,0,0,8.4,99.7a29.2,29.2,0,0,0-5.391.509Zm27.817,3.994.149-.164c.129-.142.257-.284.392-.421q.249-.258.506-.508c.629-.614,1.3-1.207,1.994-1.761l.1-.083c.1-.084.211-.168.317-.248l.065-.051c.074-.057.15-.11.225-.164.051-.035.1-.071.15-.108l.154-.113v13.911l-.028.029-4.028,4.044Zm6.954-5.439.051-.027a26.029,26.029,0,0,1,3.878-1.7l.127-.044v10.516l-.028.029-4.029,4.044Zm6.954-2.575.077-.016a25.974,25.974,0,0,1,8.481-.381l.2.023-8.756,8.79Zm11.414-2.871-.191-.041c-.052-.01-.1-.021-.153-.033s-.114-.026-.173-.036a29,29,0,0,0-19.066,2.907c-.29.155-.6.33-.984.551a29.535,29.535,0,0,0-2.628,1.726l-.076.054c-.033.023-.066.046-.1.071-.25.187-.486.377-.748.588-.574.459-1.121.929-1.628,1.4-.346.321-.659.624-.957.927l-.069.069-.069-.069c-.3-.3-.611-.606-.958-.927-.506-.469-1.054-.94-1.628-1.4-.262-.211-.5-.4-.748-.587-.032-.025-.066-.048-.1-.071l-.076-.053a29.5,29.5,0,0,0-2.629-1.727c-.38-.221-.693-.4-.984-.551A29.214,29.214,0,0,0,0,93.959v7.2c0,.96.049,1.941.145,2.917A29.706,29.706,0,0,0,1.559,110.6c.261.77.545,1.514.846,2.211.185.427.378.847.573,1.246.38.778.792,1.535,1.222,2.25.088.147.181.291.273.435l.11.172a29.256,29.256,0,0,0,17.189,12.645c.438.118.9.228,1.364.328l.05.009.058.011c.054.011.11.021.166.03l.139.024c.509.1.968.194,1.445.263.039.007.077.011.116.016l.082.01c.734.1,1.486.181,2.237.227.45.029.929.048,1.468.056l.167,0c.136,0,.27,0,.406,0l.167,0c.539-.008,1.019-.027,1.469-.056.093,0,.184-.013.276-.021l.139-.011c.642-.048,1.239-.112,1.822-.2l.082-.01c.039,0,.077-.009.115-.015.152-.022.3-.047.451-.072.226-.037.434-.077.642-.116l.131-.023c.211-.04.423-.081.634-.126.467-.1.926-.21,1.364-.328.056-.015.11-.031.164-.047l.2-.057c.2-.055.4-.111.6-.173a29.347,29.347,0,0,0,16.4-12.659l.084-.131c.039-.061.079-.122.117-.184a29.607,29.607,0,0,0,1.454-2.777c.043-.095.09-.189.135-.283.07-.144.14-.289.2-.436a29.223,29.223,0,0,0,2.4-11.652v-7.2c-.708-.213-1.483-.407-2.367-.592Z" transform="translate(0 -57.331)"></path><path id="Tracé_19887" data-name="Tracé 19887" d="M102.872,80.911V77.856a29.254,29.254,0,0,0-3.67,1.406v3.258l.14-.067c.072-.034.146-.068.218-.1a25.957,25.957,0,0,1,3.312-1.438" transform="translate(-61.34 -48.141)"></path><path id="Tracé_19888" data-name="Tracé 19888" d="M175.143,54.024a18,18,0,0,1,16.319-10.675,17.771,17.771,0,0,1,11.777,4.469,18.017,18.017,0,0,1,4.544,6.206ZM212.728,57a21.735,21.735,0,0,0-5.1-10.227,22.056,22.056,0,0,0-1.739-1.745A21.689,21.689,0,0,0,170.2,57l-.174.879H212.9Z" transform="translate(-105.131 -24.42)"></path><path id="Tracé_19889" data-name="Tracé 19889" d="M193.993,48.665a18.074,18.074,0,0,1-1.615,1.621A17.772,17.772,0,0,1,180.6,54.755a17.953,17.953,0,0,1-13.5-6.222h27.011Zm67.46-.588-.517.588a18.125,18.125,0,0,1-1.615,1.621,17.769,17.769,0,0,1-26.206-2.921,17.912,17.912,0,0,1,14.429-28.436A17.773,17.773,0,0,1,259.322,23.4a18.179,18.179,0,0,1,1.615,1.621l.516.587,13-13.053.367-.368-.486-.519c-.316-.338-.583-.617-.841-.876s-.532-.525-.872-.845A36.7,36.7,0,0,0,214.073,21.7a36.672,36.672,0,0,0-6.681-10.029c-.317-.34-.584-.618-.841-.876s-.53-.523-.872-.845a36.588,36.588,0,0,0-48.86-1.163l-.257.22v5.313l1.24-1.2a32.7,32.7,0,0,1,45.183-.4c.565.529,1.118,1.084,1.644,1.651a33.184,33.184,0,0,1,7.5,13.183c.283.966.523,1.951.714,2.929l.018.093c.146.745.261,1.334.352,2.084l.1.8h1.5l.051-.479a29.635,29.635,0,0,1,1.152-5.427,33.3,33.3,0,0,1,11.678-16.98,32.689,32.689,0,0,1,41.674,1.632l-7.916,7.947A21.693,21.693,0,0,0,226.28,32.582a21.973,21.973,0,0,0-.418,4.26,21.718,21.718,0,0,0,3.181,11.34,21.921,21.921,0,0,0,7.747,7.557,21.574,21.574,0,0,0,24.662-2.209l7.916,7.947a32.689,32.689,0,0,1-41.674,1.632,33.3,33.3,0,0,1-11.677-16.98A30.619,30.619,0,0,1,214.86,40.5l-.05-.481h-1.475l-.05.481a28.9,28.9,0,0,1-.763,4.174H160.34l.462,1.035a21.861,21.861,0,0,0,9.045,10.026,21.574,21.574,0,0,0,24.662-2.209l7.916,7.947A32.709,32.709,0,0,1,155.3,57.859l-.675-.817-.524.921c-.088.154-.176.306-.263.452-.024.04-.049.079-.08.126l-.116.18c-.26.42-.549.859-.859,1.3l-.327.469.374.434c.585.678,1.2,1.338,1.821,1.964a36.592,36.592,0,0,0,51.026.845c.335-.316.612-.584.872-.845s.526-.538.842-.876l.484-.519L194.964,48.533h17.765A36.988,36.988,0,0,0,221.6,62.893a36.591,36.591,0,0,0,51.026.845c.339-.319.616-.587.872-.845s.522-.533.842-.876l.485-.519L261.855,48.482Z" transform="translate(-94.27 0)"></path></svg> 