<?xml version="1.0" standalone="no"?>
<!DOCTYPE svg PUBLIC "-//W3C//DTD SVG 20010904//EN"
 "http://www.w3.org/TR/2001/REC-SVG-20010904/DTD/svg10.dtd">
<svg version="1.0" xmlns="http://www.w3.org/2000/svg"
 width="1024.000000pt" height="1024.000000pt" viewBox="0 0 1024.000000 1024.000000"
 preserveAspectRatio="xMidYMid meet">

<g transform="translate(0.000000,1024.000000) scale(0.100000,-0.100000)"
fill="#000000" stroke="none">
<path d="M4895 8719 c-487 -66 -945 -355 -1211 -764 -291 -449 -355 -1031
-168 -1532 186 -498 584 -885 1077 -1049 157 -51 281 -74 450 -81 l149 -6 -27
54 c-44 85 -100 151 -290 338 -183 181 -220 226 -260 314 -27 61 -28 71 -26
286 l1 165 36 -42 c51 -60 140 -126 242 -179 93 -49 136 -83 157 -124 8 -14
22 -82 31 -150 20 -137 22 -136 48 29 8 52 16 95 18 97 1 2 47 5 102 7 l99 3
-6 -101 c-4 -55 -14 -134 -22 -174 -8 -40 -14 -74 -12 -76 7 -7 85 192 97 246
20 87 76 180 109 180 6 0 7 -64 4 -172 -7 -229 -27 -293 -163 -519 -50 -82
-90 -160 -90 -176 0 -11 224 29 330 58 83 23 258 92 347 138 163 82 350 230
474 375 205 238 345 519 409 821 27 128 38 415 21 548 -50 381 -206 708 -465
975 -252 260 -535 417 -886 492 -85 18 -144 23 -305 26 -110 1 -231 -2 -270
-7z m145 -240 c-209 -21 -311 -65 -448 -193 -48 -45 -108 -96 -133 -113 -67
-46 -138 -129 -171 -199 -15 -33 -44 -116 -64 -185 -42 -150 -66 -205 -135
-306 -29 -43 -69 -114 -90 -158 -21 -44 -39 -74 -39 -67 0 20 65 144 125 236
71 108 85 141 131 301 20 72 49 155 65 186 33 67 111 154 182 206 29 20 81 65
117 99 85 82 104 96 175 132 94 47 194 70 310 69 54 0 52 -1 -25 -8z m138 -6
c-10 -2 -26 -2 -35 0 -10 3 -2 5 17 5 19 0 27 -2 18 -5z m87 -13 c14 -7 8 -8
-20 -3 -22 3 -42 7 -44 9 -9 8 45 2 64 -6z m175 -43 c101 -24 180 -50 180 -61
0 -3 -16 2 -37 10 -20 9 -75 24 -122 35 -84 18 -200 53 -151 45 14 -2 72 -15
130 -29z m-140 -62 c52 -15 115 -29 140 -31 79 -9 165 -57 244 -137 94 -94
125 -151 196 -361 33 -96 103 -269 155 -386 53 -116 100 -234 106 -262 20 -94
-2 -247 -52 -353 -30 -65 -138 -183 -124 -135 25 82 27 129 3 74 -20 -47 -88
-142 -114 -159 -13 -8 -24 -13 -24 -11 0 34 27 187 50 281 15 66 32 145 37
175 l9 55 27 -55 c15 -30 27 -69 27 -87 0 -17 5 -35 11 -39 8 -5 10 21 7 92
-4 89 -10 113 -57 238 -29 77 -63 186 -77 243 -13 58 -31 121 -40 141 -27 65
-92 139 -193 221 -132 107 -179 169 -212 279 l-12 43 -31 -56 c-58 -109 -182
-195 -346 -240 -192 -52 -287 -117 -433 -300 -45 -55 -122 -142 -171 -194
l-91 -93 74 47 c41 26 81 49 89 52 9 4 -4 -30 -32 -85 -37 -71 -61 -103 -109
-145 -85 -74 -112 -130 -112 -227 0 -59 6 -86 26 -130 32 -69 101 -137 154
-152 22 -6 47 -18 56 -25 20 -17 54 -102 44 -111 -16 -16 -115 -3 -163 22 -81
41 -132 111 -168 231 l-18 60 -7 -63 c-3 -34 -8 -65 -11 -67 -7 -7 -82 109
-107 166 -44 99 -44 246 -1 361 11 31 45 95 75 144 93 150 133 237 175 381 67
229 55 213 324 447 180 157 261 188 461 182 90 -3 143 -11 215 -31z m450 -97
c50 -49 150 -191 150 -213 0 -5 -22 27 -49 71 -30 48 -79 108 -122 148 -39 38
-63 63 -52 58 10 -6 43 -34 73 -64z m221 -408 c29 -85 63 -179 76 -209 13 -29
22 -55 20 -57 -7 -7 -63 133 -112 281 -25 77 -49 147 -51 155 -5 13 -4 13 5 0
6 -8 34 -85 62 -170z m-552 108 c25 -41 116 -129 204 -197 100 -79 144 -152
162 -274 l8 -49 -29 15 c-51 26 -182 50 -242 44 -42 -5 -62 -12 -81 -33 l-26
-26 25 12 c21 11 19 7 -11 -26 -20 -22 -44 -54 -53 -71 -19 -38 -16 -37 -52
-18 -33 17 -72 19 -107 6 -21 -8 -26 -6 -35 14 -6 12 -25 39 -43 60 -30 34
-31 37 -10 30 21 -6 22 -5 11 15 -27 51 -174 70 -278 36 -58 -20 -134 -82
-152 -125 -11 -28 -16 -30 -76 -33 -65 -3 -65 -3 -59 22 12 49 63 146 110 208
88 117 217 201 372 243 102 27 205 77 273 133 30 24 58 45 62 45 3 1 15 -14
27 -31z m793 -688 c16 -42 21 -84 23 -180 l3 -125 -8 125 c-9 140 -18 171
-104 353 -31 64 -56 121 -55 125 1 11 119 -236 141 -298z m-1194 154 c182 -76
170 -332 -19 -389 -196 -57 -346 172 -217 330 57 69 155 93 236 59z m705 -32
c111 -80 116 -243 12 -330 -102 -83 -255 -48 -311 71 -13 29 -24 66 -24 83 0
29 2 31 60 40 55 9 60 8 60 -8 0 -10 11 -25 24 -33 29 -19 61 -8 71 25 8 26
15 25 63 -10 23 -16 43 -30 46 -30 2 0 1 11 -2 25 -7 40 -73 92 -127 101 -42
6 -55 3 -117 -30 -38 -20 -71 -36 -74 -36 -11 0 30 78 54 103 49 52 90 68 160
63 51 -3 72 -10 105 -34z m-420 -118 c33 -16 35 -19 40 -83 5 -52 17 -87 57
-167 28 -56 54 -118 57 -139 l6 -38 -44 7 c-31 4 -56 2 -80 -8 -39 -16 -74
-12 -101 12 -12 10 -36 14 -75 13 -52 -1 -72 7 -73 31 0 4 15 24 33 44 66 76
-4 16 -95 -81 -99 -106 -135 -168 -145 -253 -3 -26 0 -63 5 -82 10 -34 10 -34
11 20 1 30 8 69 17 85 23 44 155 215 166 215 6 0 49 -18 97 -41 97 -46 141
-48 227 -9 26 11 54 20 63 20 21 -1 75 -73 128 -173 33 -63 42 -76 43 -55 1
73 -64 210 -130 273 -16 16 -30 36 -30 44 0 9 -11 36 -25 60 -14 23 -25 44
-25 46 0 2 25 -10 56 -27 45 -24 67 -30 117 -30 77 0 122 18 183 74 l47 43 -5
-61 c-3 -33 -17 -103 -31 -155 -14 -52 -33 -141 -41 -199 -11 -72 -25 -124
-46 -167 -29 -59 -112 -163 -131 -163 -5 0 -10 12 -10 28 -1 20 -3 22 -6 8
-24 -93 -153 -178 -292 -192 -131 -14 -308 74 -360 179 l-21 42 0 -40 c0 -23
5 -46 12 -53 42 -42 -80 32 -150 91 -96 81 -171 197 -206 320 -17 60 -25 67
-46 42 -24 -29 -70 -18 -114 28 -65 67 -84 162 -47 242 35 78 74 84 70 10 -2
-31 3 -49 19 -70 12 -15 22 -38 22 -51 0 -13 5 -24 11 -24 9 0 10 24 4 88 -13
139 -9 166 31 225 37 54 60 65 142 66 32 1 32 0 33 -46 3 -174 174 -298 344
-248 108 31 195 147 195 260 0 23 6 35 23 43 30 14 31 14 70 -4z m-1352 -81
c-6 -21 -11 -56 -12 -78 -1 -22 -5 -51 -10 -65 -5 -17 -6 -5 -3 35 6 69 24
158 31 151 2 -2 0 -21 -6 -43z m-11 -213 c0 -53 32 -148 77 -230 51 -91 157
-192 279 -265 32 -19 53 -35 47 -35 -10 0 -84 48 -181 117 -112 81 -211 249
-231 396 -4 31 -4 57 1 57 4 0 8 -18 8 -40z m2270 -115 c-49 -147 -169 -277
-335 -362 -64 -33 -83 -49 -107 -97 -11 -22 -54 -72 -95 -112 l-74 -73 17 -28
c32 -51 163 -173 232 -215 37 -22 114 -62 172 -88 158 -71 241 -112 236 -117
-2 -2 -31 9 -64 26 -33 17 -107 51 -164 76 -56 25 -134 64 -173 87 -74 44
-212 170 -247 226 l-20 33 79 82 c44 45 89 100 101 122 17 33 37 49 119 95
173 96 290 236 325 388 7 31 14 49 16 39 2 -9 -6 -46 -18 -82z m-1755 -434
c38 -5 50 -10 51 -24 1 -9 0 -11 -2 -4 -3 9 -26 16 -59 20 -30 3 -62 11 -72
17 -15 9 -14 10 7 4 13 -4 47 -9 75 -13z m38 -75 c-5 -8 -57 -60 -116 -115
-100 -91 -122 -106 -275 -185 -92 -47 -191 -99 -219 -116 -29 -17 -53 -28 -53
-26 0 9 117 74 280 157 162 83 167 86 275 194 61 60 112 109 113 108 2 -1 0
-8 -5 -17z"/>
<path d="M5225 8128 c-16 -10 -93 -39 -170 -63 -77 -25 -171 -63 -210 -84 -75
-43 -240 -169 -232 -178 3 -3 21 6 39 20 55 43 297 154 392 181 113 32 152 53
190 99 35 44 32 51 -9 25z"/>
<path d="M5580 8075 c0 -14 46 -72 115 -146 39 -42 82 -100 95 -128 30 -62 43
-66 25 -8 -17 58 -58 137 -89 174 -25 30 -146 119 -146 108z"/>
<path d="M5157 7765 c-27 -7 -50 -15 -52 -17 -2 -2 79 -3 180 -3 101 0 181 3
177 6 -34 30 -217 38 -305 14z"/>
<path d="M4975 7673 c-35 -5 -57 -22 -29 -22 10 1 82 -2 159 -5 136 -6 139 -6
105 11 -35 16 -174 26 -235 16z"/>
<path d="M5396 7655 c-30 -22 -17 -25 59 -14 101 16 114 28 30 28 -46 0 -77
-5 -89 -14z"/>
<path d="M4908 7328 c-22 -6 -52 -26 -73 -49 -53 -59 -43 -78 21 -39 l33 21
11 -21 c9 -17 19 -20 48 -18 30 2 38 7 40 27 4 23 6 24 68 18 64 -6 99 7 47
18 -15 3 -44 14 -63 24 -48 25 -88 31 -132 19z"/>
<path d="M4576 6983 c3 -21 15 -58 25 -81 18 -43 88 -146 95 -140 1 2 -22 54
-52 116 -30 63 -54 117 -54 122 0 5 -5 12 -11 15 -7 5 -8 -5 -3 -32z"/>
<path d="M5011 6617 c-14 -18 -4 -27 28 -27 13 0 50 -4 80 -10 201 -35 189
-34 284 -5 71 22 90 25 102 15 18 -15 30 -7 22 13 -7 18 -148 32 -192 19 -17
-5 -46 -5 -67 1 -23 6 -72 6 -130 0 -51 -5 -94 -6 -96 -1 -5 12 -18 10 -31 -5z"/>
<path d="M5377 6510 c-16 -5 -71 -10 -123 -12 -52 -2 -94 -5 -94 -8 0 -16 70
-44 110 -44 46 1 115 29 139 58 15 18 10 18 -32 6z"/>
<path d="M4915 6107 c-14 -33 3 -152 30 -218 25 -59 59 -114 40 -64 -17 44
-36 128 -49 212 -9 60 -15 82 -21 70z"/>
<path d="M4585 5163 c-76 -12 -197 -48 -263 -79 -187 -86 -360 -264 -447 -460
-100 -224 -96 -552 10 -781 140 -302 393 -476 745 -511 308 -31 606 66 795
257 l59 61 -44 36 c-25 21 -82 75 -127 122 -92 96 -76 94 -164 17 -142 -124
-355 -173 -543 -125 -232 59 -387 243 -411 487 -18 176 58 380 185 502 97 93
210 133 370 133 155 -1 277 -46 407 -152 61 -50 62 -50 77 -29 8 12 62 72 120
134 l105 112 -37 35 c-103 98 -254 181 -397 219 -63 17 -114 22 -245 24 -91 2
-178 1 -195 -2z"/>
<path d="M3052 4249 l3 -891 190 1 190 0 3 890 2 891 -195 0 -195 0 2 -891z"/>
<path d="M5772 4538 c4 -585 5 -605 26 -683 74 -268 240 -432 510 -501 152
-39 339 -35 502 12 223 64 410 253 464 469 31 121 36 235 36 767 l0 538 -185
0 -185 0 0 -527 c0 -301 -5 -558 -10 -598 -20 -137 -92 -244 -195 -291 -216
-99 -452 -24 -542 173 -48 104 -52 167 -53 726 l0 517 -186 0 -185 0 3 -602z"/>
<path d="M5069 2773 c-57 -141 -106 -260 -108 -265 -1 -5 21 -8 50 -6 l53 3
22 55 22 55 115 3 115 3 24 -61 23 -60 54 0 c38 0 52 3 48 13 -3 6 -51 126
-107 265 l-103 252 -51 0 -52 0 -105 -257z m196 32 c20 -49 39 -96 42 -102 4
-10 -16 -13 -82 -13 -66 0 -86 3 -82 13 41 102 81 196 83 194 1 -1 19 -42 39
-92z"/>
<path d="M3050 2760 l0 -260 50 0 50 0 0 260 0 260 -50 0 -50 0 0 -260z"/>
<path d="M3330 2761 l0 -261 50 0 50 0 2 170 3 170 129 -170 128 -170 44 0 44
0 0 250 c0 138 1 253 3 258 1 4 -19 8 -45 10 l-48 3 0 -182 0 -182 -29 44
c-17 24 -76 105 -134 179 l-103 135 -47 3 -47 3 0 -260z"/>
<path d="M3970 2760 l0 -260 50 0 50 0 0 260 0 260 -50 0 -50 0 0 -260z"/>
<path d="M4207 3013 c-2 -5 -4 -24 -3 -43 l1 -35 78 -3 77 -3 0 -215 0 -215
48 3 47 3 2 214 2 214 70 -2 c39 -1 74 0 79 3 4 2 6 23 4 45 l-4 41 -198 0
c-110 0 -201 -3 -203 -7z"/>
<path d="M4740 2760 l0 -260 50 0 50 0 0 260 0 260 -50 0 -50 0 0 -260z"/>
<path d="M5510 2975 l0 -45 80 0 80 0 0 -215 0 -215 45 0 45 0 0 215 0 215 80
0 80 0 0 45 0 45 -205 0 -205 0 0 -45z"/>
<path d="M6060 2760 l0 -260 45 0 45 0 0 260 0 260 -45 0 -45 0 0 -260z"/>
<path d="M6290 3015 c0 -3 45 -121 101 -261 l101 -255 50 3 50 3 99 255 c54
140 99 256 99 258 0 2 -23 2 -51 0 l-51 -3 -69 -180 c-38 -99 -69 -186 -69
-192 0 -28 -16 -11 -28 30 -7 23 -39 110 -71 192 l-58 150 -51 3 c-29 2 -52 0
-52 -3z"/>
<path d="M6920 2760 l0 -260 173 2 172 3 1 43 2 42 -129 0 -129 0 0 65 0 65
110 0 110 0 0 40 0 40 -110 0 -110 0 0 65 0 65 125 0 125 0 0 45 0 45 -170 0
-170 0 0 -260z"/>
<path d="M2315 2235 c-85 -33 -128 -103 -128 -210 0 -103 42 -179 120 -211 47
-20 140 -17 188 6 69 33 70 34 47 68 l-21 29 -50 -25 c-60 -29 -104 -25 -151
14 -63 53 -66 170 -5 231 29 29 39 33 87 33 36 0 64 -7 87 -21 18 -11 34 -19
35 -17 1 2 10 16 20 32 20 31 20 31 -39 63 -41 22 -141 26 -190 8z"/>
<path d="M3416 2236 c-120 -45 -172 -207 -107 -335 61 -120 249 -137 344 -31
91 100 60 296 -55 356 -42 22 -136 27 -182 10z m159 -99 c80 -80 42 -242 -61
-262 -79 -14 -144 52 -144 148 0 93 47 146 129 147 36 0 49 -6 76 -33z"/>
<path d="M3803 2243 c-24 -2 -43 -6 -43 -8 0 -1 36 -59 80 -128 l80 -125 0
-86 0 -86 43 0 42 0 -3 80 -4 81 81 130 c45 71 81 132 81 135 0 3 -21 4 -46 2
l-47 -3 -52 -87 -53 -87 -56 94 c-31 52 -58 94 -59 93 -1 -1 -21 -3 -44 -5z"/>
<path d="M2680 2025 l0 -215 40 0 40 0 0 215 0 215 -40 0 -40 0 0 -215z"/>
<path d="M2870 2203 l0 -38 66 0 66 0 -2 -177 -1 -178 46 0 45 0 0 181 0 181
65 -4 65 -4 0 38 0 38 -175 0 -175 0 0 -37z"/>
<path d="M4260 2025 l0 -215 145 0 145 0 0 35 0 35 -105 0 -105 0 0 55 0 55
90 0 90 0 0 35 0 35 -90 0 -90 0 0 56 0 55 98 -2 97 -2 3 37 3 36 -140 0 -141
0 0 -215z"/>
<path d="M4680 2025 l0 -215 40 0 39 0 3 140 3 140 109 -145 c107 -143 110
-145 148 -145 l38 0 0 220 0 220 -40 0 -40 0 0 -145 c0 -132 -7 -172 -24 -129
-3 9 -50 74 -104 145 -94 125 -98 129 -134 129 l-38 0 0 -215z"/>
<path d="M5210 2025 l0 -215 43 0 42 0 -3 142 c-2 137 -1 142 15 122 10 -12
61 -78 113 -147 92 -122 96 -127 133 -127 l37 0 0 220 0 220 -40 0 -40 0 0
-152 c-1 -119 -3 -149 -12 -133 -6 11 -56 80 -111 153 -98 129 -101 132 -138
132 l-39 0 0 -215z"/>
<path d="M5750 2238 c0 -2 -1 -99 -3 -216 l-2 -212 148 0 147 0 0 35 0 35
-105 0 -105 0 0 55 0 55 90 0 90 0 0 35 0 35 -90 0 -90 0 0 56 0 56 100 -4
100 -3 0 38 0 37 -140 0 c-77 0 -140 -1 -140 -2z"/>
<path d="M6372 2078 c3 -141 6 -168 23 -197 31 -53 67 -74 135 -79 89 -6 142
17 178 76 26 45 27 54 31 205 l3 157 -40 0 -39 0 -5 -142 c-5 -160 -16 -197
-68 -218 -41 -17 -87 -3 -114 33 -19 25 -21 45 -24 178 l-4 149 -40 0 -40 0 4
-162z"/>
<path d="M6880 2025 l0 -215 45 0 45 0 0 143 0 142 19 -30 c10 -16 59 -82 108
-145 82 -107 91 -115 126 -118 l37 -3 0 220 0 221 -40 0 -40 0 0 -147 0 -146
-110 146 c-110 146 -111 147 -150 147 l-40 0 0 -215z"/>
<path d="M7420 2025 l0 -215 40 0 40 0 0 215 0 215 -40 0 -40 0 0 -215z"/>
<path d="M7650 2025 l0 -215 150 0 150 0 0 35 0 35 -105 0 -105 0 0 55 0 55
90 0 90 0 0 35 0 35 -90 0 -90 0 0 56 0 55 98 -2 97 -2 3 37 3 36 -145 0 -146
0 0 -215z"/>
</g>
</svg>
