<?xml version="1.0" standalone="no"?>
<!DOCTYPE svg PUBLIC "-//W3C//DTD SVG 20010904//EN"
 "http://www.w3.org/TR/2001/REC-SVG-20010904/DTD/svg10.dtd">
<svg version="1.0" xmlns="http://www.w3.org/2000/svg"
 width="654.000000pt" height="1024.000000pt" viewBox="0 0 654.000000 1024.000000"
 preserveAspectRatio="xMidYMid meet">

<g transform="translate(0.000000,1024.000000) scale(0.100000,-0.100000)"
fill="#000000" stroke="none">
<path d="M137 10073 c-4 -3 -7 -978 -7 -2165 l0 -2158 3145 0 3145 0 0 2165 0
2165 -3138 0 c-1726 0 -3142 -3 -3145 -7z m973 -1733 c11 -11 20 -31 20 -45 0
-14 -9 -34 -20 -45 -18 -18 -33 -20 -150 -20 l-129 0 -3 -359 c-3 -337 -4
-360 -22 -380 -25 -27 -79 -28 -106 -1 -19 19 -20 33 -20 380 l0 360 -128 0
c-99 0 -132 3 -150 16 -27 18 -30 69 -5 96 15 17 39 18 355 18 325 0 339 -1
358 -20z m772 3 c24 -21 23 -68 -2 -93 -19 -19 -33 -20 -260 -20 l-240 0 0
-125 0 -125 218 0 c251 0 262 -3 262 -70 0 -29 -5 -42 -19 -50 -12 -6 -107
-10 -240 -10 l-221 0 0 -125 0 -125 253 0 c285 0 289 -1 289 -65 0 -65 1 -65
-341 -65 -269 0 -307 2 -323 17 -17 15 -18 42 -18 429 0 362 2 415 16 428 13
14 56 16 311 16 262 0 299 -2 315 -17z m301 5 c15 -12 17 -49 19 -378 l3 -365
235 -5 c129 -3 241 -9 248 -13 6 -5 12 -28 12 -52 0 -34 -5 -47 -19 -55 -12
-6 -131 -10 -315 -10 l-296 0 0 435 c0 403 1 435 18 444 24 14 75 13 95 -1z
m1248 2 c14 -8 19 -21 19 -48 0 -69 8 -67 -270 -70 l-250 -3 0 -124 0 -125
225 0 c212 0 226 -1 245 -20 25 -25 26 -61 3 -89 -17 -20 -28 -21 -243 -24
l-225 -2 -3 -122 -3 -123 253 0 c286 0 298 -3 298 -65 0 -64 -7 -65 -345 -65
-244 0 -305 3 -321 14 -18 14 -19 32 -22 421 -2 355 -1 411 13 431 l15 24 296
0 c184 0 303 -4 315 -10z m783 -12 c22 -31 20 -64 -4 -88 -19 -19 -33 -20
-200 -20 l-180 0 -32 -29 -33 -29 0 -257 0 -257 33 -29 32 -29 192 0 c164 0
194 -2 210 -17 22 -20 23 -70 1 -95 -15 -16 -35 -18 -222 -18 -115 0 -223 5
-245 11 -50 14 -118 82 -134 135 -16 54 -17 542 -1 599 13 48 80 116 130 132
19 6 120 11 236 12 198 1 202 1 217 -21z m739 11 c47 -13 115 -72 134 -116 10
-25 13 -101 13 -319 0 -320 -1 -325 -70 -388 -21 -19 -56 -39 -77 -45 -54 -15
-375 -14 -427 1 -53 16 -118 81 -134 134 -15 53 -17 542 -1 598 13 47 82 118
129 133 45 14 383 16 433 2z m489 -16 c14 -16 76 -100 138 -188 62 -88 116
-164 120 -168 4 -5 62 70 130 165 156 220 155 218 201 218 72 0 69 17 69 -445
l0 -414 -22 -15 c-12 -9 -34 -16 -48 -16 -14 0 -36 7 -48 16 -22 15 -22 16
-22 315 0 176 -4 298 -9 295 -5 -3 -50 -65 -101 -137 -137 -194 -148 -194
-285 -4 -52 74 -100 137 -105 140 -7 4 -10 -97 -10 -294 0 -299 0 -300 -22
-315 -31 -22 -74 -20 -98 4 -19 19 -20 33 -20 429 0 457 -2 441 69 441 28 0
44 -7 63 -27z m-3549 -1023 c69 -10 152 -45 177 -75 11 -13 9 -20 -15 -45 -25
-26 -30 -28 -45 -15 -61 55 -202 76 -275 39 -59 -29 -80 -64 -80 -134 0 -97
40 -125 211 -154 175 -29 241 -84 251 -208 7 -80 -8 -128 -53 -178 -55 -61
-121 -84 -239 -85 -75 0 -113 5 -150 19 -56 21 -135 74 -135 90 0 12 40 56 52
56 5 0 31 -16 59 -35 58 -39 99 -50 185 -49 86 1 150 33 175 88 22 49 24 85 5
129 -20 49 -58 68 -179 88 -193 32 -266 88 -275 208 -10 140 67 237 207 261
25 4 48 8 51 9 3 0 36 -4 73 -9z m1485 -427 l2 -423 -45 0 c-44 0 -45 1 -45
31 l0 31 -30 -26 c-78 -65 -209 -60 -281 13 -49 49 -69 118 -69 240 1 167 33
246 117 283 66 29 165 23 222 -15 l41 -27 0 160 0 161 43 -3 42 -3 3 -422z
m621 411 c76 -22 137 -81 157 -152 35 -121 -4 -237 -100 -297 -48 -29 -53 -30
-210 -35 l-161 -5 -3 -172 -2 -173 -45 0 -45 0 0 425 0 425 178 0 c133 0 192
-4 231 -16z m1511 -34 l0 -50 -50 0 -50 0 0 43 c0 24 3 47 7 50 3 4 26 7 50 7
l43 0 0 -50z m-3150 -397 c1 -215 7 -255 48 -296 59 -59 181 -44 220 27 14 25
18 69 22 241 l5 210 40 0 40 0 3 -292 2 -293 -45 0 c-42 0 -45 2 -45 25 l0 26
-47 -28 c-40 -23 -59 -28 -118 -28 -116 0 -184 54 -205 164 -11 59 -14 414 -3
424 3 4 24 7 45 7 l38 0 0 -187z m2265 168 c46 -21 79 -54 94 -94 7 -17 11
-118 11 -253 l0 -224 -40 0 c-33 0 -40 3 -40 20 0 25 0 25 -52 -2 -35 -19 -59
-23 -128 -23 -94 0 -135 16 -174 68 -30 40 -30 160 -1 199 40 53 69 63 215 68
l135 5 -1 54 c-3 94 -63 138 -172 128 -47 -5 -65 -13 -118 -52 -9 -6 -21 -2
-39 15 l-25 24 31 32 c40 41 76 52 179 53 63 0 95 -4 125 -18z m395 -16 c4
-21 8 -26 14 -16 16 25 90 51 149 51 58 0 86 -9 120 -38 17 -15 16 -17 -14
-48 l-32 -33 -28 21 c-35 27 -107 28 -144 4 -14 -9 -35 -31 -45 -49 -18 -29
-20 -51 -20 -239 l0 -208 -45 0 -45 0 0 296 0 295 42 -3 c39 -3 43 -6 48 -33z
m488 -262 l2 -293 -45 0 -45 0 0 296 0 295 43 -3 42 -3 3 -292z m508 282 c27
-8 58 -21 69 -29 20 -14 19 -15 -8 -44 l-29 -30 -36 21 c-30 18 -53 22 -115
22 -76 0 -80 -1 -108 -33 -34 -38 -37 -69 -9 -105 23 -28 37 -33 162 -46 146
-17 192 -57 186 -166 -4 -73 -24 -104 -90 -140 -93 -51 -257 -41 -352 21 l-39
26 31 31 c30 30 32 30 51 13 69 -62 266 -61 300 2 12 23 14 82 3 98 -15 23
-56 36 -145 45 -153 16 -207 57 -207 159 0 81 36 130 115 158 44 15 164 14
221 -3z"/>
<path d="M4570 8217 c-48 -37 -50 -49 -50 -295 0 -255 6 -288 56 -311 15 -7
84 -11 175 -11 l151 0 29 31 29 31 0 255 0 255 -29 29 -29 29 -159 0 c-109 -1
-163 -4 -173 -13z"/>
<path d="M3097 6970 c-72 -22 -96 -78 -97 -218 0 -153 33 -210 128 -220 64 -6
105 16 134 71 31 59 32 232 3 291 -33 66 -101 97 -168 76z"/>
<path d="M3688 7224 c-5 -4 -8 -81 -8 -171 l0 -163 133 0 c118 0 138 3 177 23
115 57 118 232 5 291 -33 17 -63 21 -170 24 -71 2 -133 1 -137 -4z"/>
<path d="M4410 6713 c-48 -25 -66 -64 -51 -114 15 -51 51 -69 133 -69 107 0
150 39 152 137 l1 58 -100 3 c-80 2 -107 -1 -135 -15z"/>
<path d="M140 5404 c0 -48 2 -55 18 -50 29 8 604 13 1135 9 l207 -1 0 49 0 49
-680 0 -680 0 0 -56z"/>
<path d="M2360 5400 c0 -74 -17 -86 -60 -45 -25 24 -33 26 -70 20 -27 -5 -56
-19 -80 -41 -21 -19 -43 -34 -50 -34 -7 0 -31 20 -54 45 -35 37 -49 45 -78 45
-19 0 -38 -3 -41 -6 -12 -12 32 -56 121 -123 130 -99 154 -159 102 -261 -9
-19 -23 -60 -29 -90 -15 -68 -35 -100 -64 -100 -12 0 -98 25 -192 55 -93 30
-175 55 -181 55 -13 0 -39 -144 -29 -160 3 -5 13 -10 21 -10 30 0 81 -35 154
-105 41 -40 94 -84 116 -98 72 -44 62 -95 -17 -84 -22 3 -74 21 -116 41 -41
20 -77 36 -79 36 -2 0 -4 -11 -4 -25 0 -26 36 -50 115 -75 72 -23 112 -48 125
-79 10 -26 9 -40 -13 -108 -14 -43 -35 -113 -47 -156 -11 -44 -28 -93 -36
-110 -33 -65 -93 -113 -158 -126 -42 -9 -43 -27 -4 -51 42 -27 102 -22 247 20
57 16 122 32 145 35 51 8 117 -8 163 -39 30 -21 39 -22 85 -14 35 7 59 6 75
-1 15 -7 116 -11 273 -11 l248 0 19 48 c20 53 23 163 9 325 -11 121 -19 128
-137 135 -78 5 -79 5 -79 32 0 36 33 50 119 50 124 0 153 25 135 113 -12 58
-37 59 -123 8 -67 -41 -104 -50 -116 -31 -4 6 13 45 36 88 76 136 135 258 164
339 67 188 106 406 91 507 l-7 46 -159 0 c-203 0 -193 9 -216 -193 -6 -57 -43
-122 -59 -106 -3 4 -17 49 -30 101 -12 52 -35 118 -49 146 l-26 52 -80 0 -80
0 0 -60z m-110 -90 c0 -26 -35 -61 -55 -54 -21 8 -19 26 5 52 26 27 50 28 50
2z m160 -43 c0 -20 -62 -75 -92 -82 -21 -5 -29 -3 -34 9 -10 26 5 66 29 76 35
14 97 12 97 -3z m95 -59 c-2 -24 -7 -67 -9 -97 -7 -76 -27 -103 -74 -99 -35 3
-37 5 -40 39 -2 29 5 50 34 95 40 64 73 104 86 104 4 0 6 -19 3 -42z m408 -9
c31 -17 57 -35 57 -40 0 -30 -38 -73 -109 -123 -123 -86 -140 -128 -76 -185
42 -36 44 -62 9 -90 -53 -41 -111 -19 -188 73 -35 41 -41 55 -41 95 0 70 36
116 167 215 62 47 116 85 119 86 3 0 31 -14 62 -31z m-423 -351 c11 -18 20
-50 20 -71 0 -31 -4 -39 -26 -47 -28 -11 -97 -13 -131 -4 -35 10 -20 60 32
112 53 51 78 53 105 10z m-648 -40 c80 -32 108 -48 108 -60 0 -25 -26 -23
-109 8 -68 25 -121 62 -121 84 0 15 5 14 122 -32z m158 -158 c0 -5 14 -10 30
-10 19 0 33 -6 37 -16 15 -40 -75 -47 -113 -9 -14 14 -22 30 -19 35 8 13 65
13 65 0z m203 -32 c9 -7 20 -28 23 -45 l7 -33 -46 0 c-36 0 -49 5 -57 19 -16
31 -12 51 13 61 31 12 41 12 60 -2z m264 -93 l22 -15 -21 -50 c-25 -59 -34
-61 -130 -24 -108 41 -115 90 -15 97 109 7 123 7 144 -8z m-327 -117 c-1 -13
-7 -34 -15 -48 -15 -27 -20 -76 -7 -83 17 -11 198 -17 212 -8 23 16 -7 40 -56
47 -70 9 -84 14 -84 28 0 10 20 16 70 21 62 6 73 5 102 -16 55 -37 78 -62 78
-81 0 -23 -68 -98 -140 -153 -54 -41 -209 -138 -241 -150 -23 -9 -39 42 -39
124 0 70 50 302 71 327 19 23 49 18 49 -8z m568 -168 c42 -68 43 -72 28 -95
-21 -31 -25 -31 -51 1 l-21 26 -47 -23 c-26 -13 -47 -26 -47 -30 0 -10 69 -19
101 -12 25 5 30 1 40 -23 12 -33 8 -150 -6 -163 -6 -5 -83 -11 -172 -15 -162
-6 -163 -6 -163 15 0 31 62 103 131 152 l60 42 -39 16 c-51 22 -57 41 -26 79
24 28 138 100 159 100 6 0 30 -32 53 -70z"/>
<path d="M3306 5448 c-2 -7 -11 -43 -21 -79 -9 -36 -27 -90 -41 -119 -13 -28
-24 -56 -24 -61 0 -5 17 -9 38 -10 56 -1 86 -13 90 -33 3 -15 -1 -18 -20 -13
-12 3 -44 9 -70 12 l-48 7 0 -235 0 -236 33 -3 c27 -2 32 -7 32 -28 0 -21 -5
-26 -33 -28 -29 -3 -33 -6 -30 -30 2 -22 10 -28 38 -34 62 -12 110 -33 110
-47 0 -11 -15 -12 -75 -6 -69 6 -75 5 -75 -12 0 -15 9 -18 58 -19 86 -1 114
-10 110 -36 -3 -20 -8 -21 -85 -19 l-83 2 0 -179 0 -178 33 -15 c17 -8 32 -21
32 -29 0 -10 -12 -16 -32 -18 l-33 -3 0 -100 0 -99 320 0 321 0 -3 98 c-3 97
-3 97 -28 94 -14 -1 -36 0 -48 3 -20 5 -23 10 -17 33 4 15 22 52 40 82 30 50
34 64 40 165 3 61 9 118 12 128 4 17 -2 18 -79 16 -67 -2 -84 1 -86 13 -5 26
23 38 94 42 54 3 70 7 72 20 2 10 -3 16 -16 16 -33 0 -52 11 -52 30 0 14 9 20
33 22 26 2 33 8 35 30 3 24 -1 27 -30 30 -28 2 -33 7 -33 28 0 21 5 26 33 28
l32 3 0 236 0 235 -47 -7 c-27 -3 -58 -9 -70 -12 -17 -4 -23 -1 -23 11 0 20
15 26 83 35 l52 6 3 41 c3 47 -7 53 -88 54 -25 0 -98 7 -163 15 -122 14 -180
36 -158 58 8 8 36 6 103 -6 120 -23 291 -38 301 -28 4 4 7 37 5 72 l-3 64
-268 3 c-209 2 -268 0 -271 -10z m193 -239 c36 -13 39 -28 10 -55 -21 -19 -21
-18 -45 9 -43 50 -29 68 35 46z m-121 -146 c2 -9 -10 -13 -42 -13 -43 0 -55 7
-39 24 12 11 76 2 81 -11z m193 -13 c21 -12 26 -54 8 -66 -16 -10 -63 41 -56
60 7 19 21 20 48 6z m234 -85 l0 -40 -56 -3 c-88 -5 -99 37 -18 73 56 24 74
17 74 -30z m-404 25 c29 -16 23 -39 -16 -56 -57 -24 -82 -19 -90 17 -5 22 -3
34 6 40 19 12 76 11 100 -1z m27 -193 c23 -19 -6 -32 -73 -32 -75 0 -103 17
-70 41 22 17 119 11 143 -9z m202 -157 l0 -30 -80 0 -80 0 0 30 0 30 80 0 80
0 0 -30z m-32 -297 c-3 -35 -6 -38 -37 -41 -43 -4 -57 9 -40 39 15 30 28 39
57 39 21 0 23 -4 20 -37z m-248 -88 c0 -12 -13 -15 -55 -15 -42 0 -55 3 -55
15 0 12 13 15 55 15 42 0 55 -3 55 -15z m265 -109 l0 -39 -106 -55 c-93 -48
-110 -54 -143 -48 -36 7 -37 9 -34 44 3 37 3 37 44 34 37 -3 44 0 63 27 13 17
28 31 36 31 7 0 33 11 56 25 62 35 84 30 84 -19z m48 -227 c48 -24 56 -36 35
-57 -18 -18 -59 -14 -96 8 -41 25 -64 25 -87 0 -21 -24 -38 -25 -55 -5 -18 21
-2 55 33 71 42 19 111 12 170 -17z"/>
<path d="M4395 5428 c-126 -43 -244 -45 -327 -6 l-58 27 0 -22 c0 -37 28 -190
39 -220 6 -16 11 -43 11 -62 0 -25 8 -40 30 -58 17 -14 30 -30 30 -35 0 -6
-15 -23 -34 -39 l-35 -28 15 -73 c7 -41 16 -77 19 -82 2 -4 19 -10 37 -14 48
-9 78 -33 78 -60 0 -14 -16 -71 -35 -127 -44 -129 -44 -153 -8 -538 l27 -294
125 7 c69 4 161 13 205 21 78 14 80 14 121 -11 34 -19 56 -24 112 -24 80 0
108 15 122 65 8 30 -64 529 -88 605 -17 55 -13 112 12 160 24 48 76 90 112 90
34 0 59 -34 50 -67 -12 -44 -14 -283 -3 -338 6 -27 30 -124 54 -215 25 -91 47
-195 51 -232 l6 -67 141 6 c137 6 142 7 184 37 l43 31 -7 95 c-4 52 -7 106 -7
120 1 14 2 134 2 268 l1 242 27 -6 c16 -4 46 -13 67 -21 22 -7 43 -10 48 -5 4
4 4 32 -2 62 -6 30 -9 171 -8 324 3 297 -5 359 -58 439 -45 68 -131 99 -180
62 -19 -14 -19 -14 3 -30 30 -21 73 -96 73 -127 0 -33 -39 -68 -77 -68 -17 0
-61 11 -98 26 -38 14 -80 24 -94 22 -24 -3 -26 -7 -29 -63 -3 -66 -28 -102
-84 -126 -28 -11 -32 -10 -70 28 -71 71 -45 130 66 153 l55 11 -37 38 c-20 20
-52 57 -71 80 -52 66 -73 71 -283 70 -176 -1 -186 -2 -273 -31z m-113 -104
c81 -27 129 -130 73 -156 -17 -8 -25 -19 -25 -37 0 -35 -26 -71 -51 -71 -26 0
-118 86 -135 127 -28 65 -16 119 30 139 40 17 53 17 108 -2z m387 -89 c36 -39
41 -50 37 -82 -4 -41 -23 -58 -75 -73 -31 -8 -39 -7 -59 13 -53 54 -57 138 -9
172 36 25 62 18 106 -30z m174 -263 c34 -36 34 -62 0 -97 -31 -31 -62 -45 -98
-45 -29 0 -40 19 -48 82 -7 50 -2 58 48 76 49 17 70 14 98 -16z m-358 -65 c14
-11 17 -22 13 -53 -4 -21 -9 -47 -13 -56 -6 -14 -2 -18 15 -18 55 0 57 -5 64
-207 7 -166 22 -385 42 -580 4 -35 3 -63 -2 -63 -5 0 -28 26 -51 57 -38 49
-43 62 -43 107 0 45 -4 55 -39 91 -61 63 -76 122 -76 295 1 108 5 159 18 202
9 31 17 58 17 61 0 3 -17 7 -37 9 l-38 3 1 67 c0 39 6 74 14 83 16 19 89 20
115 2z m640 -57 c18 -35 20 -91 3 -108 -31 -31 -118 4 -136 56 -8 25 -7 33 6
45 55 47 105 50 127 7z m291 -34 c39 -39 43 -67 13 -97 -29 -29 -114 -23 -141
11 -42 51 -9 120 58 120 28 0 44 -8 70 -34z m-115 -241 c32 -58 35 -102 13
-189 -18 -67 -14 -135 11 -206 9 -24 12 -47 7 -52 -5 -5 -35 -13 -67 -18 -32
-5 -65 -16 -72 -23 -8 -8 -20 -38 -28 -67 -8 -29 -21 -60 -30 -69 -27 -27 -60
22 -75 109 -15 88 -8 146 36 318 19 73 34 143 34 156 0 37 82 99 124 94 11 -2
31 -24 47 -53z"/>
<path d="M5770 5441 c15 -30 12 -56 -11 -85 -50 -64 -64 -477 -30 -846 11
-113 22 -248 26 -300 6 -89 -6 -304 -21 -377 l-6 -33 341 0 341 0 0 830 0 831
-142 -3 -143 -3 -16 -85 c-19 -94 -42 -147 -70 -155 -24 -8 -125 24 -145 46
-14 16 -13 21 5 58 23 44 27 91 11 122 -9 16 -22 19 -81 19 -66 0 -69 -1 -59
-19z"/>
<path d="M178 5272 l-38 -3 0 -117 0 -117 68 -13 c112 -22 461 -26 676 -8 104
8 191 18 194 21 3 3 -9 5 -27 5 -43 0 -91 47 -91 88 0 27 5 32 43 46 23 8 88
17 144 19 l101 5 11 -26 c6 -15 9 -53 6 -84 l-5 -58 115 0 115 0 0 119 c0 105
-2 120 -17 125 -19 6 -1231 4 -1295 -2z"/>
<path d="M1806 5207 c-23 -23 -26 -34 -26 -101 0 -41 -5 -87 -11 -103 -9 -24
-7 -30 12 -46 19 -15 33 -17 88 -11 55 5 71 11 98 37 39 36 62 93 65 162 3 45
1 50 -23 62 -15 7 -61 16 -102 19 -72 6 -76 6 -101 -19z"/>
<path d="M1213 4960 c-35 -5 -131 -23 -215 -39 -229 -46 -341 -61 -464 -61
l-111 0 -103 51 c-77 37 -112 49 -139 47 l-36 -3 -3 -577 -2 -578 680 0 680 0
-2 583 -3 582 -110 1 c-60 1 -138 -2 -172 -6z"/>
<path d="M130 2495 l0 -35 3145 0 3145 0 0 35 0 35 -3145 0 -3145 0 0 -35z"/>
<path d="M1033 1999 l-20 -30 -17 25 c-9 14 -24 26 -32 26 -13 0 -11 -7 10
-34 14 -19 26 -41 26 -50 0 -24 11 -46 21 -40 5 3 9 16 9 29 0 13 9 39 20 59
26 43 9 58 -17 15z"/>
<path d="M1120 2010 c0 -5 10 -10 21 -10 20 0 21 -3 14 -56 -5 -45 -4 -55 7
-52 7 3 15 24 18 49 4 36 9 45 28 47 51 8 9 32 -55 32 -18 0 -33 -4 -33 -10z"/>
<path d="M830 1985 c0 -7 5 -37 11 -65 l11 -51 36 7 c44 8 52 12 52 25 0 6
-14 7 -34 4 -32 -7 -34 -5 -41 27 -11 55 -16 68 -26 68 -5 0 -9 -7 -9 -15z"/>
<path d="M1286 1943 c-9 -26 -16 -52 -16 -59 0 -12 50 -34 76 -34 25 0 15 18
-16 29 -44 15 -39 35 6 26 27 -5 35 -3 32 7 -3 7 -15 15 -27 18 -33 8 -21 25
17 23 41 -3 41 12 1 26 -50 17 -56 14 -73 -36z"/>
<path d="M661 1923 c-51 -63 41 -141 99 -83 41 41 10 110 -49 110 -20 0 -36
-9 -50 -27z m77 -5 c30 -30 2 -86 -37 -73 -30 9 -39 54 -16 72 23 16 37 17 53
1z"/>
<path d="M1462 1908 c-25 -13 -37 -46 -28 -82 6 -25 57 -53 76 -41 15 9 3 25
-19 25 -30 0 -46 26 -33 55 13 29 52 34 72 10 14 -17 32 -11 24 9 -5 13 -47
37 -62 35 -4 0 -17 -5 -30 -11z"/>
<path d="M512 1844 c-29 -20 -28 -25 10 -79 35 -49 54 -58 44 -21 -4 16 0 29
14 41 52 47 -9 101 -68 59z m58 -24 c0 -11 -7 -23 -16 -27 -20 -8 -36 17 -22
34 16 20 38 15 38 -7z"/>
<path d="M1597 1796 c-46 -56 -51 -91 -7 -51 14 13 19 13 36 1 17 -13 17 -18
6 -36 -33 -54 19 -25 60 33 24 34 16 48 -12 22 -19 -17 -21 -17 -40 0 -19 17
-19 19 -3 37 11 13 13 22 6 29 -7 7 -22 -4 -46 -35z"/>
<path d="M905 1744 c-106 -26 -218 -88 -301 -166 -40 -39 -74 -76 -74 -82 0
-6 38 -33 83 -60 45 -28 162 -101 259 -164 98 -63 184 -112 191 -109 8 3 30
32 49 65 68 113 233 362 241 362 11 0 277 -178 311 -209 l29 -26 -34 65 c-52
100 -172 215 -279 267 -47 23 -115 48 -151 57 -81 20 -242 20 -324 0z"/>
<path d="M1730 1664 c-25 -20 -46 -40 -48 -45 -6 -16 19 -10 45 11 15 11 28
19 29 17 2 -2 -1 -19 -6 -38 -12 -42 -13 -69 -2 -69 5 0 30 16 56 37 32 25 43
40 37 46 -7 7 -19 3 -36 -13 -31 -29 -38 -24 -25 21 12 40 13 69 3 68 -5 0
-28 -16 -53 -35z"/>
<path d="M279 1631 c-46 -47 -37 -106 22 -136 84 -44 162 73 94 140 -34 35
-78 33 -116 -4z"/>
<path d="M1832 1509 c-31 -18 -50 -35 -45 -40 11 -11 113 42 113 59 0 18 -9
15 -68 -19z"/>
<path d="M450 1368 c-46 -98 -61 -171 -61 -288 0 -192 60 -340 196 -477 45
-46 86 -83 92 -83 5 0 22 24 38 53 27 49 250 425 281 473 15 21 11 24 -128
119 -79 54 -196 136 -260 181 -64 46 -119 84 -123 84 -3 0 -19 -28 -35 -62z"/>
<path d="M1856 1414 c-19 -19 -21 -60 -4 -96 11 -22 17 -26 43 -21 35 7 62 28
70 54 6 19 -10 59 -29 71 -19 13 -64 9 -80 -8z m74 -18 c6 -8 10 -25 8 -38 -3
-26 -38 -39 -38 -14 0 19 -11 21 -28 4 -9 -9 -12 -6 -12 15 0 39 46 61 70 33z"/>
<path d="M1270 1265 c-58 -84 -106 -159 -107 -167 -3 -18 183 -134 238 -148
82 -21 174 20 216 95 39 69 29 180 -20 234 -29 31 -193 141 -209 140 -7 0 -60
-69 -118 -154z"/>
<path d="M4423 1368 c-12 -20 -243 -562 -243 -571 0 -4 30 -7 66 -5 l66 3 25
63 25 62 122 0 123 0 24 -62 25 -63 68 -3 c62 -3 68 -1 62 15 -4 10 -59 143
-124 296 l-116 277 -58 0 c-35 0 -60 -5 -65 -12z m96 -237 c17 -40 31 -79 31
-87 0 -11 -16 -14 -63 -14 -35 0 -66 3 -70 6 -5 6 7 42 48 138 9 21 18 37 19
35 2 -2 18 -37 35 -78z"/>
<path d="M6105 1361 c-45 -20 -92 -70 -101 -107 -4 -14 -4 -47 -2 -75 8 -79
52 -115 193 -157 81 -25 115 -46 115 -71 0 -69 -146 -68 -243 1 -15 11 -22 8
-52 -27 -19 -22 -34 -44 -35 -50 0 -17 81 -62 144 -80 113 -33 244 -2 286 68
26 42 35 107 20 151 -18 55 -69 92 -167 122 -107 32 -133 47 -133 78 0 56 83
67 172 23 l53 -27 16 22 c9 12 24 34 33 49 16 27 15 28 -11 47 -73 52 -212 68
-288 33z"/>
<path d="M165 1358 c-17 -52 -22 -88 -13 -94 5 -3 12 4 15 16 4 13 11 19 20
16 8 -4 32 -9 54 -12 57 -9 49 12 -11 27 -40 10 -49 16 -45 30 3 10 1 20 -5
24 -5 3 -12 0 -15 -7z"/>
<path d="M2390 1080 l0 -290 65 0 65 0 0 290 0 290 -65 0 -65 0 0 -290z"/>
<path d="M2767 1363 c-4 -3 -7 -134 -7 -290 l0 -283 65 0 65 0 0 85 0 85 68 0
c95 0 168 24 213 69 97 97 68 266 -56 322 -33 15 -66 19 -191 19 -83 0 -154
-3 -157 -7z m290 -124 c53 -32 52 -108 -1 -140 -24 -15 -46 -19 -96 -17 l-65
3 -3 74 c-4 105 -4 105 76 99 37 -3 77 -11 89 -19z"/>
<path d="M3640 1080 l0 -290 70 0 70 0 0 84 0 83 85 5 c61 4 98 12 132 29 149
74 147 293 -2 360 -33 15 -66 19 -197 19 l-158 0 0 -290z m299 153 c15 -11 27
-32 29 -48 9 -74 -29 -105 -128 -105 l-60 0 0 91 0 92 66 -6 c44 -3 75 -12 93
-24z"/>
<path d="M4950 1080 l0 -290 70 0 70 0 0 90 0 90 48 0 47 0 60 -90 60 -89 78
-1 78 0 -70 102 -71 101 28 17 c64 40 92 92 92 170 0 86 -32 137 -105 171 -34
16 -66 19 -212 19 l-173 0 0 -290z m292 170 c80 -23 93 -110 21 -148 -12 -7
-56 -12 -97 -12 l-76 0 0 85 0 85 58 0 c31 0 74 -5 94 -10z"/>
<path d="M5660 1080 l0 -290 65 0 65 0 0 290 0 290 -65 0 -65 0 0 -290z"/>
<path d="M1903 1228 c-17 -8 -23 -20 -23 -43 0 -44 16 -55 77 -55 41 0 53 3
53 16 0 12 -8 14 -42 9 -49 -6 -72 4 -66 31 2 14 16 21 51 28 26 4 47 12 47
17 0 12 -70 10 -97 -3z"/>
<path d="M137 1194 c-16 -16 -5 -24 31 -24 46 0 65 -12 60 -36 -2 -15 -14 -20
-48 -22 -25 -2 -49 -7 -54 -12 -13 -13 79 -23 102 -11 49 26 29 101 -27 101
-16 0 -36 2 -43 5 -8 3 -17 2 -21 -1z"/>
<path d="M1887 1053 c-11 -10 -8 -83 3 -83 6 0 10 14 10 30 0 20 5 30 15 30
10 0 15 -10 15 -30 0 -16 5 -30 10 -30 6 0 13 14 17 30 8 45 36 40 31 -5 -3
-24 0 -35 9 -35 9 0 13 15 13 44 0 37 -4 45 -22 50 -31 8 -93 8 -101 -1z"/>
<path d="M1726 1001 c-42 -92 -160 -164 -271 -165 -85 -1 -121 12 -232 87 -59
40 -113 75 -119 79 -7 5 -52 -50 -116 -140 -58 -81 -142 -194 -187 -252 -44
-57 -81 -108 -81 -112 0 -16 122 -67 198 -84 54 -12 104 -15 185 -12 185 8
312 64 448 198 89 88 157 211 184 334 21 95 17 126 -9 67z"/>
<path d="M130 981 c0 -44 8 -71 20 -71 5 0 10 10 12 23 2 18 11 23 47 27 25 3
46 11 49 19 4 11 -6 12 -52 7 -52 -7 -56 -6 -56 13 0 12 -4 21 -10 21 -5 0
-10 -18 -10 -39z"/>
<path d="M213 862 c-33 -9 -53 -20 -53 -30 0 -9 6 -12 16 -8 9 4 36 11 60 17
25 7 44 17 44 25 0 16 1 16 -67 -4z"/>
<path d="M271 750 c-52 -24 -61 -25 -61 -5 0 8 -7 15 -15 15 -19 0 -19 2 5
-54 22 -48 47 -64 36 -22 -5 20 0 25 39 41 25 9 45 23 45 31 0 17 4 18 -49 -6z"/>
<path d="M1811 744 c-50 -64 -1 -126 56 -72 19 17 23 19 17 5 -3 -9 -10 -17
-15 -17 -13 0 -11 -28 3 -36 20 -12 60 44 56 80 -4 41 -39 47 -76 14 -22 -19
-24 -19 -9 -2 17 20 15 54 -3 54 -5 0 -18 -12 -29 -26z"/>
<path d="M332 651 c-9 -5 -13 -22 -10 -46 3 -45 -18 -60 -28 -21 -3 14 -10 26
-15 26 -17 0 -9 -40 11 -60 17 -17 24 -18 41 -9 18 9 20 17 15 50 -5 31 -3 39
9 39 8 0 17 -11 21 -25 7 -30 24 -33 24 -5 0 19 -32 60 -47 60 -5 0 -14 -4
-21 -9z"/>
<path d="M1726 601 c-16 -18 -14 -21 34 -56 49 -36 80 -41 80 -12 0 7 -22 29
-49 49 -47 35 -50 36 -65 19z"/>
<path d="M401 496 c-28 -29 -39 -46 -31 -51 6 -4 23 3 37 16 l26 24 -6 -47
c-4 -29 -2 -50 4 -54 13 -8 100 76 93 88 -4 5 -16 1 -28 -10 -42 -38 -45 -36
-39 23 3 31 2 55 -4 55 -5 0 -28 -20 -52 -44z"/>
<path d="M1614 478 l-35 -33 44 -50 c39 -44 46 -48 61 -36 9 8 14 21 11 32 -5
14 -1 16 15 12 20 -5 50 11 50 28 0 5 -7 9 -15 9 -9 0 -20 12 -26 27 -20 53
-55 57 -105 11z m56 -26 c0 -13 -12 -22 -22 -16 -10 6 -1 24 13 24 5 0 9 -4 9
-8z"/>
<path d="M552 375 c-33 -47 -39 -65 -22 -65 11 0 70 84 70 99 0 22 -17 10 -48
-34z"/>
<path d="M1462 373 c-9 -4 -11 -21 -6 -66 9 -88 16 -97 48 -62 14 15 38 29 52
31 25 2 53 20 43 27 -86 69 -109 81 -137 70z"/>
<path d="M767 251 c-9 -33 -17 -63 -17 -65 0 -3 21 -8 46 -12 59 -9 90 6 99
47 6 25 3 36 -17 56 -13 13 -40 26 -59 29 l-35 6 -17 -61z m81 -14 c2 -10 -4
-20 -13 -23 -21 -9 -28 0 -20 26 8 24 28 22 33 -3z"/>
<path d="M1284 297 l-30 -12 18 -63 c15 -49 23 -63 36 -60 9 2 18 13 20 24 2
12 14 26 28 32 17 8 24 20 24 40 0 50 -32 63 -96 39z m47 -40 c-1 -12 -15 -9
-19 4 -3 6 1 10 8 8 6 -3 11 -8 11 -12z"/>
<path d="M970 206 c0 -49 4 -65 16 -70 25 -10 94 -7 94 4 0 6 0 13 0 18 1 4
-14 10 -32 13 l-33 6 33 2 c25 1 32 5 32 20 0 15 -8 21 -32 24 -32 4 -32 4 5
5 30 2 37 6 37 22 0 18 -7 20 -60 20 l-60 0 0 -64z"/>
</g>
</svg>
